<?xml version="1.0" encoding="UTF-8"?>
<!DOCTYPE svg PUBLIC "-//W3C//DTD SVG 1.1//EN" "http://www.w3.org/Graphics/SVG/1.1/DTD/svg11.dtd">
<!-- Creator: CorelDRAW 2020 (64-Bit) -->
<svg xmlns="http://www.w3.org/2000/svg" xml:space="preserve" width="13.1514mm" height="13.1563mm" version="1.1" style="shape-rendering:geometricPrecision; text-rendering:geometricPrecision; image-rendering:optimizeQuality; fill-rule:evenodd; clip-rule:evenodd"
viewBox="0 0 48.21 48.23"
 xmlns:xlink="http://www.w3.org/1999/xlink"
 xmlns:xodm="http://www.corel.com/coreldraw/odm/2003">
 <defs>
  <style type="text/css">
   <![CDATA[
    .fil1 {fill:#FEFEFE}
    .fil8 {fill:#7963C3}
    .fil4 {fill:#7963CB}
    .fil6 {fill:#7D60E6}
    .fil7 {fill:#7E5EE8}
    .fil9 {fill:#7E5EEB}
    .fil2 {fill:#7E60DA}
    .fil3 {fill:#7E61DD}
    .fil0 {fill:#7E61DF}
    .fil5 {fill:#7F62D3}
    .fil10 {fill:#7F63D2}
    .fil11 {fill:#8061D5}
   ]]>
  </style>
 </defs>
 <g id="Слой_x0020_1">
  <metadata id="CorelCorpID_0Corel-Layer"/>
  <path class="fil0" d="M23.89 21.54c1.7,0.97 0.29,0.77 2.28,2.12 0.07,0.93 0.21,0.71 -1.47,2.27 -1.21,1.13 -0.51,0.29 -0.89,0.21 0.01,-2.28 0.73,0.18 1.41,-2.48 -0.14,-1.22 -1.46,0.07 -1.33,-2.12zm-7.2 -2.6c0.77,0.01 0.31,-0.3 1.16,0.27 0.06,0.04 0.11,0.12 0.16,0.17l0.48 0.49c0.87,0.89 0.63,0.15 0.66,1.61l-2.46 -2.53zm2.16 -2.41c0.84,0.45 2.2,1.96 2.58,2.6 -1.62,-0.07 -0.22,0.31 -1.76,-1.1 -0.25,-0.23 -0.29,-0.09 -0.45,-0.28 -0.62,-0.77 -0.46,0.42 -0.38,-1.23zm-5.14 -1.49c0.8,0.94 0.45,0.41 0.47,1.47 -0.93,-0.51 -0.73,-0.54 -1.35,-1.23 -0.5,-0.55 -0.68,-0.57 -1.11,-1.3 1.23,0.01 0.31,-0.26 1.16,0.27l0.47 0.51c0.05,0.05 0.13,0.09 0.18,0.14 0.05,0.05 0.14,0.08 0.19,0.14zm-5.47 -5.09c1.42,0.45 0.95,0.08 0.98,1.59 -0.75,-0.41 -0.76,-0.51 -1.22,-1.05 -0.34,-0.41 -0.55,-0.66 -0.92,-1.09 -0.19,-0.18 -0.28,-0.42 -0.79,-0.42 -1.2,0.02 -0.52,-0.52 -1.18,0.53 1.34,0.91 2.57,3.11 4.02,3.55 0.23,1.6 0.14,0.39 -0.26,0.71l0.42 0.53c-0.28,-0.77 -0.39,-0.6 0.41,-0.43 1.05,1.85 1.17,1.21 3.04,3.36 1.03,1.19 -0.26,0.6 1.36,0.78 0.23,1.96 0.1,0.2 -0.29,0.77l0.44 0.49c0.36,-0.53 -1.08,-0.78 0.72,-0.33 0.53,1.23 0.87,1.18 1.86,2.27 0.84,0.94 1.03,1.54 2.25,1.84 0.36,1.89 0.11,0.19 -0.29,0.71l0.3 0.7 -0.2 0.56c-0.77,1.96 -0.82,1.31 -2.36,2.69 0.11,0.04 0.26,-0.06 0.33,0.08 0.33,0.73 0.3,-0.52 1.37,0.88 0.54,0.7 -0,0.55 1.1,1.15 1.74,-1.34 -0.35,-1.04 2.17,-1.17 -0.31,1.14 -0.02,0.58 -1.17,1.58l-1.62 3.07c2.73,-1.83 -0.19,-0.2 1.31,-1.38 0.04,-0.03 -0.38,-0.33 0.76,-0.17l0.52 0.2c1.23,-0.99 0.76,-1.15 2.38,-2.03 0.14,-0.61 0.66,-1.13 1.28,-1.27 1.36,-2.4 3.2,-2.89 4.08,-4.86 -0.66,-0.37 -4.07,-3.72 -4.57,-4.52l-5.25 -5.1c-1.26,-1.36 -4.44,-4.51 -5.32,-5 -1.6,0.12 -0.67,0.51 -2.87,-1.71l-2.02 -2.14c-0.05,-0.17 -0.15,-0.18 -0.23,-0.26 0.13,2.47 0.52,1.1 1.98,2.78 1.69,1.94 0.34,1.32 0.19,1.57 -0.9,-0.24 -0.45,-0.99 -1.58,-1.03 -0.94,-0.03 -0.38,-0.1 -0.81,0.54l-0.34 1.05z"/>
  <path class="fil1" d="M29.08 19.73c0.91,0.47 1.17,0.76 1.66,1.64 1.35,0.42 2.06,-1.02 4.38,-3.34l12.99 -13 0.09 -4.97 -5.01 0.12 -8.23 8.07c-1.59,1.59 -7.54,7.17 -8.27,8.58 0.95,1.65 1.84,1.56 2.38,2.89z"/>
  <path class="fil1" d="M30.47 27.2c-0.63,1.18 -1.76,2.29 -2.93,2.93 -0.33,0.83 -0.39,0.51 -0.9,1.37l10.46 10.41c0.48,0.5 1.43,1.48 2.01,2.02l4.21 4.13 4.9 0.14 -0.08 -5.03 -8.14 -8.2c-1.29,-1.56 -2.68,-2.77 -4.14,-4.24 -1.19,-1.19 -3.11,-2.82 -3.95,-4.11 -1.07,0.31 -0.7,0.28 -1.43,0.56z"/>
  <path class="fil2" d="M4.88 46.59c0.3,-1.66 1.25,-2.6 2.1,-2.79 1.91,-0.44 0.61,-0.02 1.09,0.3 -1.55,0.42 -1.06,1.77 -3.19,2.49zm-2.51 -5.74l-0.28 0.72 1.22 0.09c-0.18,1.76 0.11,0.75 -1.54,1.55 -0.81,1.4 0.82,0.5 -1.31,1.15 0.6,-2.03 0.17,-0.29 1.65,-1.77 0.29,-2.27 0.19,-0.65 -0.33,-1.01l-1.56 1.71 -0.14 4.94 4.9 -0.21c1.62,-0.75 3.83,-4.3 5.26,-4.73l0.59 -0.86c0.07,-0.09 0.44,-0.47 0.54,-0.59 -0.72,-0.58 1.47,-0.49 -1.03,-0.49 -0.39,0.58 -0.63,1 -1.3,1.74 -0.33,-2.42 -0.08,-0.84 1.06,-1.99l1.6 -1.92c1.43,-1.31 1.42,-0.31 1.43,-0.3 -2.31,1.56 -1.83,1.78 -1.62,2.65 0.78,-0.45 0.12,-0.03 0.65,-0.47 0.46,-0.39 0.05,-0.09 0.5,-0.48 0.55,-0.47 0.34,-0.33 1.09,-0.75 0.24,-1.28 2.09,-2.21 2.96,-3.5 -0.13,0.01 -0.27,0.05 -0.4,0.05l-1.31 -0.28c0.67,-2 0.14,-0.26 1.41,-1.31 1.18,-0.97 -0.7,-0.61 1.56,-1 -1.61,3.05 -1.78,0.16 -1.18,2.47 0.91,-0.6 1.08,-0.93 1.76,-1.58 0.23,-0.23 0.47,-0.46 0.79,-0.75 0.51,-0.47 0.24,-0.33 0.81,-0.64 0.05,-0.07 0.11,-0.15 0.14,-0.19l1.01 -1.14 -0.52 -0.2c-1.13,-0.16 -0.72,0.14 -0.76,0.17 -1.5,1.18 1.41,-0.44 -1.31,1.38l1.62 -3.07c1.15,-1 0.86,-0.45 1.17,-1.58 -2.52,0.13 -0.43,-0.17 -2.17,1.17 -1.1,-0.6 -0.56,-0.44 -1.1,-1.15 -1.07,-1.4 -1.04,-0.16 -1.37,-0.88 -0.06,-0.14 -0.22,-0.04 -0.33,-0.08 1.54,-1.38 1.59,-0.73 2.36,-2.69l0.2 -0.56 -0.61 0c-0.35,1.26 -2.94,3.34 -3.96,4.34l-3.99 4.08c-1.63,1.62 -6.49,6.91 -8.18,7.99z"/>
  <path class="fil3" d="M1.41 6.38l2.94 2.95c-0.3,-0.74 -0.39,-0.56 0.41,-0.43l0.37 0.61c0.66,-1.05 -0.02,-0.52 1.18,-0.53 0.5,-0.01 0.59,0.24 0.79,0.42 -0.44,-0.44 -0.26,-0.02 0.16,-0.41 1.03,0.37 0.37,-0.21 1,0.97l0.34 -1.05c0.43,-0.63 -0.13,-0.57 0.81,-0.54 1.13,0.04 0.68,0.79 1.58,1.03 0.15,-0.24 1.5,0.37 -0.19,-1.57 -1.46,-1.67 -1.85,-0.31 -1.98,-2.78 0.08,0.09 0.19,0.09 0.23,0.26l2.02 2.14c2.2,2.22 1.27,1.84 2.87,1.71 -0.52,-1.11 -7.04,-7.3 -7.48,-7.5 -1.67,-0.16 -0.69,-0.4 -1.96,-0.87 -0.57,-0.21 -1.48,-0.33 -2.14,-0.38 -0.03,0.1 -0.05,0.22 -0.06,0.29 -0.01,0.07 -0.04,0.2 -0.05,0.28l-0.07 1.1 -1.5 0.08c-0.27,1.26 -0.16,1.21 0.24,2.5l0.33 0.92c0.03,0.06 0.08,0.15 0.11,0.21l0.13 0.47c0,-0.03 -0.01,0.09 -0.03,0.13z"/>
  <path class="fil4" d="M0.15 5.04l1.26 1.34c0.02,-0.04 0.03,-0.16 0.03,-0.13l-0.13 -0.47c-0.02,-0.06 -0.08,-0.14 -0.11,-0.21l-0.33 -0.92c-0.4,-1.29 -0.51,-1.24 -0.24,-2.5l1.5 -0.08 0.07 -1.1c0.01,-0.09 0.04,-0.21 0.05,-0.28 0.01,-0.08 0.04,-0.2 0.06,-0.29 0.66,0.05 1.58,0.17 2.14,0.38 1.27,0.47 0.29,0.71 1.96,0.87 -0.49,-0.8 0.26,0.09 -0.58,-0.84 -0.56,-0.62 -0.2,-0.32 -0.77,-0.58l-5.09 -0.25 0.15 5.04z"/>
  <path class="fil5" d="M26.17 23.66c-1.99,-1.35 -0.58,-1.15 -2.28,-2.12 -0.12,2.19 1.19,0.9 1.33,2.12 -0.67,2.66 -1.4,0.2 -1.41,2.48 0.38,0.08 -0.33,0.92 0.89,-0.21 1.67,-1.56 1.54,-1.34 1.47,-2.27z"/>
  <path class="fil6" d="M11.37 41.84l0.14 -0.32c-0.21,-0.87 -0.69,-1.09 1.62,-2.65 -0.01,-0 -0,-1.01 -1.43,0.3l-1.6 1.92c-1.14,1.15 -1.39,-0.43 -1.06,1.99 0.67,-0.74 0.91,-1.16 1.3,-1.74 2.5,0 0.31,-0.09 1.03,0.49z"/>
  <path class="fil7" d="M4.88 46.59c2.12,-0.72 1.64,-2.07 3.19,-2.49 -0.47,-0.32 0.82,-0.74 -1.09,-0.3 -0.85,0.19 -1.8,1.13 -2.1,2.79z"/>
  <path class="fil8" d="M5.27 10.21l3.3 3.34 0.32 0.22c0.4,-0.32 0.49,0.88 0.26,-0.71 -1.45,-0.43 -2.69,-2.63 -4.02,-3.55l-0.37 -0.61c-0.79,-0.14 -0.7,-0.31 -0.41,0.43l0.92 0.89z"/>
  <path class="fil7" d="M16.71 36.31l0.08 -0.08c-0.6,-2.31 -0.43,0.58 1.18,-2.47 -2.26,0.39 -0.38,0.03 -1.56,1 -1.28,1.05 -0.74,-0.69 -1.41,1.31l1.31 0.28c0.13,0 0.27,-0.03 0.4,-0.05z"/>
  <path class="fil8" d="M9.6 14.56l3.95 3.94 0.28 0.26c0.39,-0.57 0.52,1.19 0.29,-0.77 -1.63,-0.17 -0.33,0.41 -1.36,-0.78 -1.86,-2.15 -1.99,-1.51 -3.04,-3.36 -0.81,-0.17 -0.7,-0.34 -0.41,0.43l0.29 0.27z"/>
  <path class="fil9" d="M2.09 41.57l-0.31 0.01c0.52,0.35 0.62,-1.26 0.33,1.01 -1.48,1.48 -1.05,-0.26 -1.65,1.77 2.13,-0.64 0.5,0.25 1.31,-1.15 1.65,-0.8 1.36,0.21 1.54,-1.55l-1.22 -0.09z"/>
  <path class="fil10" d="M14.18 16.5c-0.02,-1.06 0.34,-0.53 -0.47,-1.47 -0.05,-0.06 -0.14,-0.09 -0.19,-0.14 -0.05,-0.05 -0.13,-0.1 -0.18,-0.14l-0.47 -0.51c-0.84,-0.53 0.08,-0.25 -1.16,-0.27 0.42,0.73 0.61,0.75 1.11,1.3 0.62,0.69 0.42,0.72 1.35,1.23z"/>
  <path class="fil11" d="M21.44 19.12c-0.38,-0.64 -1.75,-2.15 -2.58,-2.6 -0.08,1.64 -0.24,0.46 0.38,1.23 0.16,0.19 0.2,0.05 0.45,0.28 1.54,1.41 0.14,1.03 1.76,1.1z"/>
  <path class="fil10" d="M7.08 9.39c0.37,0.43 0.58,0.69 0.92,1.09 0.45,0.54 0.47,0.65 1.22,1.05 -0.03,-1.51 0.45,-1.14 -0.98,-1.59 -0.63,-1.18 0.02,-0.6 -1,-0.97 -0.42,0.39 -0.6,-0.03 -0.16,0.41z"/>
  <path class="fil10" d="M17.85 19.2c-0.85,-0.56 -0.38,-0.26 -1.16,-0.27l2.46 2.53c-0.03,-1.46 0.22,-0.72 -0.66,-1.61l-0.48 -0.49c-0.06,-0.05 -0.1,-0.13 -0.16,-0.17z"/>
 </g>
</svg>
